<svg width="718" height="339" viewBox="0 0 718 339" fill="none" xmlns="http://www.w3.org/2000/svg">
<g clip-path="url(#clip0_5_1969)">
<path d="M0.441406 79.2295C0.441406 66.3948 2.40481 55.0411 6.33164 45.1683C10.4221 35.2955 15.9032 27.0681 22.7752 20.4862C29.8107 13.7397 37.9918 8.63873 47.3177 5.18323C56.8077 1.72775 67.0339 0 77.9959 0C88.9583 0 99.1026 1.72775 108.429 5.18323C117.919 8.63873 126.181 13.7397 133.217 20.4862C140.253 27.0681 145.734 35.2955 149.66 45.1683C153.751 55.0411 155.796 66.3948 155.796 79.2295C155.796 92.0643 153.833 103.5 149.906 113.538C145.979 123.41 140.498 131.72 133.463 138.467C126.59 145.048 118.409 150.067 108.92 153.523C99.4301 156.978 89.1221 158.706 77.9959 158.706C66.8701 158.706 56.5621 156.978 47.0724 153.523C37.5824 149.903 29.4017 144.72 22.5298 137.973C15.6578 131.227 10.2584 122.917 6.33164 113.044C2.40481 103.171 0.441406 91.8997 0.441406 79.2295ZM44.6182 79.2295C44.6182 79.2295 67.8519 79.2295 77.9959 79.2295C88.304 79.2295 111.62 79.2295 111.62 79.2295C111.62 64.4205 108.593 53.3134 102.539 45.9087C96.6484 38.504 88.5493 34.8016 78.2415 34.8016C68.0972 34.8016 59.9162 38.504 53.6988 45.9087C47.6452 53.1488 44.6182 64.2558 44.6182 79.2295Z" fill="white"/>
<path d="M252.771 78.2423C252.771 73.1415 251.298 69.4391 248.353 67.1356C245.572 64.6672 241.727 63.4333 236.818 63.4333C233.546 63.4333 230.274 63.8445 227.001 64.6672C223.892 65.4899 221.193 66.7241 218.902 68.3695V154.016C217.266 154.51 214.648 155.004 211.048 155.498C207.612 155.991 204.013 156.238 200.25 156.238C196.65 156.238 193.378 155.991 190.433 155.498C187.651 155.004 185.279 154.016 183.315 152.536C181.352 151.055 179.798 149.08 178.652 146.612C177.671 143.979 177.18 140.606 177.18 136.492V62.446C177.18 58.0032 178.08 54.3831 179.879 51.5858C181.843 48.7885 184.461 46.238 187.733 43.9342C193.296 39.9853 200.25 36.7764 208.594 34.3083C217.102 31.8401 226.51 30.606 236.818 30.606C255.307 30.606 269.542 34.7198 279.522 42.9469C289.503 51.01 294.493 62.2813 294.493 76.7615V154.016C292.857 154.51 290.239 155.004 286.64 155.498C283.204 155.991 279.604 156.238 275.841 156.238C272.241 156.238 268.969 155.991 266.024 155.498C263.242 155.004 260.87 154.016 258.907 152.536C256.943 151.055 255.389 149.08 254.244 146.612C253.262 143.979 252.771 140.606 252.771 136.492V78.2423Z" fill="white"/>
<path d="M407.441 219.072C417.586 226.283 410.847 250.863 410.847 250.863L410.059 246.094C413.226 241.458 415.416 235.198 423.708 228.212C427.637 224.901 433.533 222.252 441.394 220.265C447.944 218.609 464.628 219.072 467.597 219.072C467.597 219.072 454.497 238.809 451.987 250.333C451.987 250.333 436.09 250.686 429.975 254.572C423.86 258.457 419.143 263.579 415.824 269.937C412.505 276.295 410.847 282.83 410.847 289.541V334.842C403.539 340.107 378.145 342.448 374.425 328.992C372.673 322.662 374.425 276.957 374.425 276.957V219.072C386.07 214.333 398.3 212.577 407.441 219.072Z" fill="white"/>
<path d="M0 207.397C0 200.327 2.04649 194.737 6.13946 190.627C10.2324 186.517 15.7988 184.461 22.8387 184.461H103.879C105.025 186.27 106.008 188.654 106.826 191.613C107.808 194.573 108.3 197.697 108.3 200.985C108.3 207.233 106.908 211.672 104.125 214.303C101.505 216.933 97.9853 218.248 93.5651 218.248H41.7481V241.184H97.0031C98.149 242.993 99.1315 245.377 99.9499 248.336C100.932 251.131 101.423 254.173 101.423 257.461C101.423 263.708 100.114 268.148 97.4944 270.778C94.8747 273.409 91.3548 274.724 86.9343 274.724H41.7481V300.619H104.861C106.008 302.428 106.99 304.812 107.808 307.771C108.791 310.731 109.282 313.855 109.282 317.143C109.282 323.39 107.89 327.912 105.107 330.707C102.488 333.337 98.9678 334.653 94.5472 334.653H22.8387C15.7988 334.653 10.2324 332.598 6.13946 328.487C2.04649 324.377 0 318.787 0 311.717V207.397Z" fill="white"/>
<path d="M205.786 257.954C205.786 252.857 204.313 249.158 201.366 246.856C198.582 244.39 194.735 243.157 189.824 243.157C186.549 243.157 183.275 243.568 180 244.39C176.89 245.212 174.189 246.445 171.897 248.089V333.666C170.259 334.159 167.64 334.653 164.038 335.146C160.6 335.639 156.998 335.886 153.233 335.886C149.631 335.886 146.357 335.639 143.41 335.146C140.626 334.653 138.252 333.666 136.288 332.186C134.323 330.707 132.768 328.734 131.622 326.267C130.64 323.637 130.148 320.266 130.148 316.156V242.171C130.148 237.731 131.049 234.114 132.85 231.319C134.814 228.524 137.434 225.976 140.708 223.674C146.275 219.728 153.233 216.522 161.582 214.056C170.096 211.59 179.51 210.356 189.824 210.356C208.324 210.356 222.567 214.467 232.554 222.687C242.541 230.744 247.534 242.006 247.534 256.474V333.666C245.897 334.159 243.278 334.653 239.676 335.146C236.238 335.639 232.636 335.886 228.871 335.886C225.269 335.886 221.994 335.639 219.047 335.146C216.264 334.653 213.89 333.666 211.926 332.186C209.961 330.707 208.406 328.734 207.26 326.267C206.277 323.637 205.786 320.266 205.786 316.156V257.954Z" fill="white"/>
<path d="M315.07 292.727C315.07 297.002 316.38 300.044 319 301.852C321.783 303.661 325.63 304.565 330.542 304.565C332.997 304.565 335.535 304.401 338.154 304.072C340.776 303.578 343.067 303.003 345.031 302.346C346.504 304.154 347.733 306.209 348.714 308.511C349.859 310.648 350.432 313.279 350.432 316.403C350.432 322.651 348.06 327.747 343.313 331.693C338.727 335.639 330.542 337.614 318.754 337.614C304.347 337.614 293.214 334.324 285.355 327.747C277.661 321.171 273.813 310.484 273.813 295.687V190.134C275.614 189.64 278.152 189.147 281.426 188.654C284.864 187.996 288.466 187.667 292.232 187.667C299.435 187.667 305.002 188.983 308.931 191.613C313.024 194.079 315.07 199.423 315.07 207.644V223.427H347.242C348.222 225.236 349.125 227.538 349.944 230.333C350.924 232.963 351.416 235.923 351.416 239.211C351.416 244.966 350.105 249.158 347.487 251.789C345.031 254.255 341.675 255.488 337.417 255.488H315.07V292.727Z" fill="white"/>
<path d="M531.172 337.86C521.512 337.86 512.506 336.543 504.157 333.913C495.969 331.118 488.766 327.008 482.546 321.582C476.488 316.156 471.66 309.333 468.058 301.112C464.618 292.892 462.899 283.273 462.899 272.258C462.899 261.407 464.618 252.117 468.058 244.39C471.66 236.498 476.326 230.086 482.054 225.154C487.785 220.057 494.335 216.358 501.7 214.056C509.069 211.59 516.599 210.356 524.295 210.356C532.971 210.356 540.828 211.672 547.87 214.302C555.074 216.933 561.213 220.55 566.287 225.154C571.526 229.757 575.539 235.265 578.322 241.677C581.267 248.089 582.742 255.077 582.742 262.64C582.742 268.23 581.186 272.504 578.076 275.464C574.966 278.423 570.626 280.314 565.06 281.136L504.403 290.261C506.202 295.687 509.888 299.797 515.454 302.592C521.02 305.223 527.405 306.538 534.608 306.538C541.32 306.538 547.624 305.716 553.517 304.072C559.575 302.263 564.487 300.208 568.251 297.906C570.872 299.551 573.083 301.852 574.882 304.812C576.684 307.771 577.584 310.895 577.584 314.183C577.584 321.582 574.147 327.09 567.271 330.707C562.031 333.502 556.138 335.392 549.588 336.379C543.038 337.364 536.9 337.86 531.172 337.86ZM524.295 240.937C520.366 240.937 516.926 241.595 513.982 242.91C511.195 244.225 508.904 245.952 507.105 248.089C505.302 250.062 503.911 252.364 502.93 254.994C502.111 257.461 501.62 260.009 501.454 262.64L543.449 255.735C542.958 252.446 541.158 249.158 538.045 245.869C534.935 242.581 530.353 240.937 524.295 240.937Z" fill="white"/>
<path d="M666.43 338.106C656.77 338.106 647.764 336.79 639.414 334.159C631.23 331.364 624.027 327.254 617.804 321.828C611.746 316.403 606.917 309.58 603.316 301.359C599.879 293.138 598.157 283.52 598.157 272.504C598.157 261.653 599.879 252.364 603.316 244.637C606.917 236.745 611.584 230.332 617.315 225.4C623.043 220.303 629.593 216.604 636.958 214.302C644.327 211.836 651.857 210.603 659.553 210.603C668.229 210.603 676.089 211.918 683.128 214.549C690.331 217.18 696.47 220.797 701.548 225.4C706.787 230.004 710.797 235.512 713.58 241.924C716.528 248.336 718 255.323 718 262.886C718 268.477 716.444 272.751 713.334 275.711C710.224 278.67 705.884 280.561 700.318 281.383L639.66 290.508C641.463 295.933 645.146 300.044 650.712 302.839C656.278 305.469 662.663 306.785 669.866 306.785C676.578 306.785 682.882 305.963 688.775 304.318C694.833 302.51 699.745 300.455 703.512 298.153C706.13 299.797 708.34 302.099 710.143 305.058C711.942 308.018 712.842 311.142 712.842 314.43C712.842 321.828 709.405 327.336 702.528 330.953C697.289 333.748 691.396 335.639 684.846 336.626C678.3 337.614 672.157 338.106 666.43 338.106ZM659.553 241.184C655.624 241.184 652.184 241.842 649.239 243.157C646.456 244.472 644.162 246.198 642.363 248.336C640.56 250.309 639.168 252.611 638.188 255.241C637.369 257.707 636.877 260.256 636.716 262.886L678.707 255.981C678.215 252.693 676.416 249.405 673.306 246.116C670.193 242.828 665.611 241.184 659.553 241.184Z" fill="white"/>
<path d="M535.299 148.155C543.978 148.155 550.239 149.825 554.076 153.164C558.082 156.504 560.087 160.511 560.087 165.186C560.087 169.527 558.918 173.2 556.583 176.206C554.245 179.044 550.407 181.883 545.063 184.721L512.768 201.752C507.758 201.251 503.503 199.247 499.999 195.741C496.491 192.235 494.739 188.478 494.739 184.471C494.739 182.467 495.241 180.464 496.242 178.46C497.243 176.457 498.914 174.62 501.249 172.95L535.299 148.155Z" fill="white"/>
</g>
<defs>
<clipPath id="clip0_5_1969">
<rect width="718" height="339" fill="white"/>
</clipPath>
</defs>
</svg>

