<svg width="678" height="124" viewBox="0 0 678 124" fill="none" xmlns="http://www.w3.org/2000/svg">
<g clip-path="url(#clip0_5_1949)">
<path d="M475.773 46.0777C482.381 50.7628 477.991 66.7333 477.991 66.7333L477.479 63.6349C479.542 60.6226 480.968 56.5548 486.366 52.0162C488.925 49.8646 492.765 48.1433 497.883 46.8523C502.148 45.7766 513.011 46.0777 514.946 46.0777C514.946 46.0777 506.416 58.9014 504.781 66.3892C504.781 66.3892 494.43 66.6187 490.449 69.1434C486.467 71.6677 483.396 74.9956 481.235 79.1269C479.073 83.2579 477.991 87.5038 477.991 91.8643V121.299C473.234 124.719 456.697 126.24 454.273 117.497C453.134 113.384 454.273 83.6883 454.273 83.6883V46.0777C461.859 42.9978 469.822 41.8576 475.773 46.0777Z" fill="white"/>
<path d="M0 71.9818C0 63.6493 1.27929 56.2782 3.83786 49.8688C6.50307 43.4591 10.0744 38.1177 14.5519 33.8446C19.136 29.4649 24.4664 26.1533 30.543 23.9099C36.7263 21.6666 43.3893 20.5449 50.5321 20.5449C57.6745 20.5449 64.2842 21.6666 70.361 23.9099C76.5442 26.1533 81.9278 29.4649 86.5119 33.8446C91.0961 38.1177 94.6675 43.4591 97.2261 49.8688C99.8912 56.2782 101.224 63.6493 101.224 71.9818C101.224 80.3144 99.9445 87.7386 97.3859 94.2551C94.8273 100.664 91.2559 106.059 86.6717 110.439C82.1944 114.712 76.8638 117.97 70.6806 120.214C64.4977 122.457 57.7814 123.579 50.5321 123.579C43.2828 123.579 36.5665 122.457 30.3831 120.214C24.1999 117.864 18.8695 114.499 14.392 110.119C9.91448 105.739 6.39643 100.344 3.83786 93.9345C1.27929 87.5248 0 80.2075 0 71.9818ZM28.784 71.9818C28.784 71.9818 44.0821 71.9818 50.6919 71.9818C57.4082 71.9818 72.4398 71.9818 72.4398 71.9818C72.4398 62.3673 70.4675 55.1565 66.5229 50.3494C62.6852 45.5423 57.4082 43.1386 50.6919 43.1386C44.0821 43.1386 38.7519 45.5423 34.7007 50.3494C30.7563 55.05 28.784 62.2604 28.784 71.9818Z" fill="white"/>
<path d="M164.409 71.3406C164.409 68.0292 163.449 65.6255 161.53 64.1301C159.718 62.5275 157.213 61.7264 154.015 61.7264C151.882 61.7264 149.75 61.9936 147.618 62.5275C145.592 63.0619 143.834 63.863 142.341 64.9313V120.534C141.275 120.855 139.569 121.175 137.224 121.496C134.985 121.816 132.64 121.976 130.188 121.976C127.842 121.976 125.71 121.816 123.791 121.496C121.979 121.175 120.433 120.534 119.154 119.573C117.875 118.611 116.862 117.329 116.115 115.727C115.476 114.018 115.156 111.828 115.156 109.157V61.0856C115.156 58.201 115.743 55.851 116.915 54.0351C118.194 52.2187 119.9 50.5631 122.032 49.0673C125.657 46.5037 130.188 44.4205 135.625 42.8183C141.168 41.2157 147.298 40.4146 154.015 40.4146C166.061 40.4146 175.336 43.0851 181.839 48.4265C188.342 53.661 191.594 60.9787 191.594 70.3792V120.534C190.528 120.855 188.822 121.175 186.476 121.496C184.238 121.816 181.892 121.976 179.44 121.976C177.095 121.976 174.963 121.816 173.044 121.496C171.232 121.175 169.686 120.534 168.406 119.573C167.127 118.611 166.114 117.329 165.368 115.727C164.728 114.018 164.409 111.828 164.409 109.157V71.3406Z" fill="white"/>
<path d="M210.464 38.4916C210.464 33.8979 211.797 30.266 214.462 27.5953C217.127 24.9247 220.752 23.5894 225.336 23.5894H278.106C278.853 24.7644 279.492 26.3134 280.025 28.2363C280.665 30.1591 280.985 32.1888 280.985 34.3254C280.985 38.3848 280.079 41.269 278.266 42.9781C276.561 44.6876 274.268 45.5422 271.39 45.5422H237.649V60.4443H273.629C274.375 61.6195 275.015 63.1686 275.548 65.0915C276.187 66.9075 276.507 68.8837 276.507 71.0203C276.507 75.0797 275.654 77.964 273.949 79.6731C272.243 81.3825 269.951 82.2371 267.072 82.2371H237.649V99.0621H278.746C279.492 100.237 280.132 101.786 280.665 103.709C281.305 105.632 281.624 107.662 281.624 109.798C281.624 113.857 280.718 116.795 278.906 118.611C277.2 120.321 274.908 121.175 272.03 121.175H225.336C220.752 121.175 217.127 119.84 214.462 117.169C211.797 114.499 210.464 110.866 210.464 106.273V38.4916Z" fill="white"/>
<path d="M344.465 71.3406C344.465 68.0292 343.504 65.6255 341.586 64.1301C339.775 62.5275 337.27 61.7264 334.07 61.7264C331.938 61.7264 329.806 61.9936 327.674 62.5275C325.648 63.0619 323.889 63.863 322.397 64.9313V120.534C321.331 120.855 319.625 121.175 317.279 121.496C315.041 121.816 312.696 121.976 310.244 121.976C307.898 121.976 305.766 121.816 303.847 121.496C302.035 121.175 300.489 120.534 299.21 119.573C297.93 118.611 296.918 117.329 296.171 115.727C295.532 114.018 295.212 111.828 295.212 109.157V61.0856C295.212 58.201 295.798 55.851 296.971 54.0351C298.25 52.2187 299.956 50.5631 302.088 49.0673C305.713 46.5037 310.244 44.4205 315.68 42.8183C321.224 41.2157 327.354 40.4146 334.07 40.4146C346.117 40.4146 355.392 43.0851 361.895 48.4265C368.399 53.661 371.649 60.9787 371.649 70.3792V120.534C370.584 120.855 368.878 121.175 366.531 121.496C364.292 121.816 361.949 121.976 359.495 121.976C357.152 121.976 355.017 121.816 353.099 121.496C351.289 121.175 349.741 120.534 348.463 119.573C347.182 118.611 346.171 117.329 345.422 115.727C344.785 114.018 344.465 111.828 344.465 109.157V71.3406Z" fill="white"/>
<path d="M415.626 93.9343C415.626 96.7117 416.479 98.688 418.185 99.8631C419.996 101.038 422.504 101.626 425.7 101.626C427.298 101.626 428.954 101.519 430.66 101.305C432.362 100.985 433.856 100.611 435.137 100.184C436.095 101.359 436.894 102.694 437.534 104.19C438.279 105.579 438.654 107.288 438.654 109.317C438.654 113.377 437.109 116.688 434.018 119.252C431.031 121.816 425.7 123.098 418.024 123.098C408.644 123.098 401.396 120.961 396.278 116.688C391.268 112.415 388.763 105.472 388.763 95.8572V27.2748C389.933 26.9543 391.588 26.6338 393.719 26.3133C395.957 25.886 398.304 25.6724 400.755 25.6724C405.445 25.6724 409.069 26.527 411.628 28.2362C414.295 29.8386 415.626 33.3104 415.626 38.6518V48.9072H436.573C437.214 50.082 437.801 51.5777 438.333 53.3937C438.974 55.1028 439.294 57.026 439.294 59.1622C439.294 62.9014 438.441 65.6254 436.735 67.3345C435.137 68.9371 432.949 69.7382 430.178 69.7382H415.626V93.9343Z" fill="white"/>
<path d="M556.345 123.258C550.054 123.258 544.191 122.404 538.752 120.695C533.422 118.878 528.732 116.208 524.68 112.683C520.735 109.157 517.593 104.724 515.247 99.3828C513.008 94.0414 511.889 87.792 511.889 80.6346C511.889 73.584 513.008 67.5484 515.247 62.5276C517.593 57.3999 520.631 53.2336 524.363 50.0291C528.092 46.7174 532.357 44.3137 537.154 42.8183C541.952 41.2157 546.854 40.4146 551.867 40.4146C557.518 40.4146 562.632 41.2691 567.218 42.9782C571.907 44.6877 575.906 47.0376 579.21 50.0291C582.622 53.0202 585.235 56.5987 587.045 60.765C588.967 64.9313 589.924 69.4712 589.924 74.3852C589.924 78.0175 588.913 80.7949 586.887 82.7177C584.86 84.6405 582.035 85.8691 578.411 86.4034L538.914 92.3322C540.088 95.8573 542.485 98.5282 546.109 100.344C549.733 102.053 553.89 102.908 558.583 102.908C562.953 102.908 567.059 102.374 570.896 101.306C574.84 100.13 578.037 98.795 580.491 97.2996C582.197 98.3679 583.637 99.8633 584.807 101.786C585.98 103.709 586.566 105.739 586.566 107.875C586.566 112.683 584.328 116.261 579.85 118.612C576.439 120.427 572.602 121.656 568.337 122.297C564.072 122.938 560.074 123.258 556.345 123.258ZM551.867 60.2841C549.308 60.2841 547.07 60.7116 545.151 61.5661C543.338 62.4207 541.844 63.5424 540.671 64.9313C539.501 66.2129 538.594 67.7087 537.953 69.4178C537.421 71.0204 537.1 72.6761 536.996 74.3852L564.338 69.8987C564.018 67.7621 562.848 65.6255 560.822 63.489C558.796 61.3524 555.812 60.2841 551.867 60.2841Z" fill="white"/>
<path d="M644.42 123.418C638.129 123.418 632.266 122.564 626.828 120.854C621.497 119.038 616.808 116.368 612.755 112.843C608.811 109.317 605.665 104.884 603.322 99.5429C601.083 94.2015 599.964 87.9521 599.964 80.7947C599.964 73.7442 601.083 67.7085 603.322 62.6877C605.665 57.56 608.706 53.3938 612.435 50.1889C616.167 46.8775 620.432 44.4738 625.23 42.9784C630.027 41.3758 634.929 40.5747 639.939 40.5747C645.59 40.5747 650.708 41.4293 655.293 43.1384C659.983 44.8478 663.981 47.1978 667.285 50.1889C670.697 53.18 673.31 56.7589 675.12 60.9252C677.039 65.0914 678 69.6314 678 74.5453C678 78.1776 676.988 80.955 674.962 82.8779C672.936 84.8007 670.11 86.0293 666.486 86.5633L626.989 92.4924C628.159 96.0175 630.56 98.688 634.184 100.504C637.808 102.213 641.965 103.068 646.659 103.068C651.028 103.068 655.131 102.534 658.971 101.466C662.916 100.291 666.112 98.9552 668.566 97.4598C670.272 98.5281 671.708 100.023 672.882 101.946C674.055 103.869 674.642 105.899 674.642 108.035C674.642 112.843 672.403 116.421 667.926 118.772C664.514 120.588 660.677 121.816 656.412 122.457C652.147 123.098 648.149 123.418 644.42 123.418ZM639.939 60.4443C637.384 60.4443 635.145 60.8717 633.223 61.7263C631.413 62.5808 629.919 63.7026 628.746 65.0914C627.573 66.3731 626.669 67.8688 626.029 69.5779C625.496 71.1805 625.176 72.8362 625.068 74.5453L652.414 70.0588C652.093 67.9223 650.92 65.7857 648.897 63.6491C646.871 61.5126 643.884 60.4443 639.939 60.4443Z" fill="white"/>
<path d="M559.032 0C564.686 0 568.762 1.08486 571.26 3.25459C573.869 5.42431 575.174 8.02798 575.174 11.0656C575.174 13.8863 574.412 16.273 572.892 18.2257C571.368 20.07 568.87 21.9143 565.39 23.7585L544.359 34.8242C541.099 34.4985 538.328 33.1968 536.045 30.9186C533.763 28.6404 532.623 26.1995 532.623 23.5958C532.623 22.294 532.947 20.9921 533.601 19.6903C534.251 18.3885 535.34 17.1951 536.861 16.1102L559.032 0Z" fill="white"/>
</g>
<defs>
<clipPath id="clip0_5_1949">
<rect width="678" height="124" fill="white"/>
</clipPath>
</defs>
</svg>

