<svg width="102" height="103" viewBox="0 0 102 103" fill="none" xmlns="http://www.w3.org/2000/svg">
<g clip-path="url(#clip0_5_1935)">
<path d="M0 51.3544C0 43.0352 1.28583 35.6762 3.8575 29.2768C6.53634 22.8775 10.1259 17.5448 14.6264 13.2785C19.2339 8.90571 24.5916 5.59941 30.6993 3.35965C36.9142 1.11988 43.6113 0 50.7906 0C57.9696 0 64.6131 1.11988 70.7209 3.35965C76.9358 5.59941 82.3469 8.90571 86.9545 13.2785C91.5621 17.5448 95.1518 22.8775 97.7235 29.2768C100.402 35.6762 101.741 43.0352 101.741 51.3544C101.741 59.6736 100.456 67.0862 97.8841 73.592C95.3124 79.9914 91.7227 85.3773 87.1151 89.7502C82.6149 94.0165 77.257 97.2696 71.0422 99.5091C64.8276 101.749 58.077 102.869 50.7906 102.869C43.5042 102.869 36.7535 101.749 30.5385 99.5091C24.3237 97.1629 18.966 93.8031 14.4656 89.4302C9.9652 85.0575 6.42915 79.6713 3.8575 73.2719C1.28583 66.8728 0 59.5669 0 51.3544ZM28.9313 51.3544C28.9313 51.3544 44.3076 51.3544 50.9512 51.3544C57.7018 51.3544 72.8104 51.3544 72.8104 51.3544C72.8104 41.7556 70.828 34.5563 66.8632 29.7568C63.0058 24.9573 57.7018 22.5576 50.9512 22.5576C44.3076 22.5576 38.9501 24.9573 34.8782 29.7568C30.9136 34.4496 28.9313 41.6489 28.9313 51.3544Z" fill="white"/>
</g>
<defs>
<clipPath id="clip0_5_1935">
<rect width="102" height="103" fill="white"/>
</clipPath>
</defs>
</svg>

