<svg width="677" height="124" viewBox="0 0 677 124" fill="none" xmlns="http://www.w3.org/2000/svg">
<g clip-path="url(#clip0_5_1937)">
<path d="M475.071 46.0777C481.67 50.7628 477.287 66.7333 477.287 66.7333L476.775 63.6349C478.835 60.6226 480.259 56.5548 485.649 52.0162C488.204 49.8646 492.039 48.1433 497.149 46.8523C501.407 45.7766 512.254 46.0777 514.187 46.0777C514.187 46.0777 505.669 58.9014 504.037 66.3892C504.037 66.3892 493.702 66.6187 489.726 69.1434C485.75 71.6677 482.683 74.9956 480.525 79.1269C478.367 83.2579 477.287 87.5038 477.287 91.8643V121.299C472.536 124.719 456.024 126.24 453.603 117.497C452.466 113.384 453.603 83.6883 453.603 83.6883V46.0777C461.178 42.9978 469.13 41.8576 475.071 46.0777Z" fill="#10141D"/>
<path d="M0 71.9818C0 63.6493 1.2774 56.2782 3.8322 49.8688C6.49348 43.4591 10.0595 38.1177 14.5305 33.8446C19.1078 29.4649 24.4303 26.1533 30.498 23.9099C36.6721 21.6666 43.3253 20.5449 50.4575 20.5449C57.5894 20.5449 64.1894 21.6666 70.2572 23.9099C76.4313 26.1533 81.8069 29.4649 86.3843 33.8446C90.9617 38.1177 94.5279 43.4591 97.0827 49.8688C99.7439 56.2782 101.074 63.6493 101.074 71.9818C101.074 80.3144 99.7971 87.7386 97.2422 94.2551C94.6874 100.664 91.1213 106.059 86.5439 110.439C82.0732 114.712 76.7505 117.97 70.5763 120.214C64.4025 122.457 57.6962 123.579 50.4575 123.579C43.2189 123.579 36.5126 122.457 30.3383 120.214C24.1642 117.864 18.8417 114.499 14.3708 110.119C9.89985 105.739 6.387 100.344 3.8322 93.9345C1.2774 87.5248 0 80.2075 0 71.9818ZM28.7416 71.9818C28.7416 71.9818 44.0171 71.9818 50.6171 71.9818C57.3235 71.9818 72.333 71.9818 72.333 71.9818C72.333 62.3673 70.3636 55.1565 66.4248 50.3494C62.5927 45.5423 57.3235 43.1386 50.6171 43.1386C44.0171 43.1386 38.6947 45.5423 34.6495 50.3494C30.7109 55.05 28.7416 62.2604 28.7416 71.9818Z" fill="#10141D"/>
<path d="M164.166 71.3406C164.166 68.0292 163.208 65.6255 161.292 64.1301C159.482 62.5275 156.981 61.7264 153.787 61.7264C151.658 61.7264 149.529 61.9936 147.4 62.5275C145.378 63.0619 143.621 63.863 142.131 64.9313V120.534C141.066 120.855 139.363 121.175 137.021 121.496C134.786 121.816 132.444 121.976 129.996 121.976C127.654 121.976 125.525 121.816 123.609 121.496C121.799 121.175 120.256 120.534 118.978 119.573C117.701 118.611 116.689 117.329 115.944 115.727C115.305 114.018 114.986 111.828 114.986 109.157V61.0856C114.986 58.201 115.572 55.851 116.743 54.0351C118.02 52.2187 119.723 50.5631 121.852 49.0673C125.472 46.5037 129.996 44.4205 135.425 42.8183C140.96 41.2157 147.081 40.4146 153.787 40.4146C165.816 40.4146 175.077 43.0851 181.571 48.4265C188.064 53.661 191.311 60.9787 191.311 70.3792V120.534C190.246 120.855 188.543 121.175 186.201 121.496C183.966 121.816 181.624 121.976 179.176 121.976C176.834 121.976 174.705 121.816 172.789 121.496C170.979 121.175 169.436 120.534 168.158 119.573C166.881 118.611 165.869 117.329 165.124 115.727C164.485 114.018 164.166 111.828 164.166 109.157V71.3406Z" fill="#10141D"/>
<path d="M210.153 38.4916C210.153 33.8979 211.484 30.266 214.145 27.5953C216.807 24.9247 220.426 23.5894 225.003 23.5894H277.696C278.441 24.7644 279.08 26.3134 279.612 28.2363C280.251 30.1591 280.57 32.1888 280.57 34.3254C280.57 38.3848 279.665 41.269 277.856 42.9781C276.153 44.6876 273.864 45.5422 270.99 45.5422H237.298V60.4443H273.225C273.97 61.6195 274.609 63.1686 275.141 65.0915C275.78 66.9075 276.099 68.8837 276.099 71.0203C276.099 75.0797 275.248 77.964 273.545 79.6731C271.841 81.3825 269.553 82.2371 266.678 82.2371H237.298V99.0621H278.335C279.08 100.237 279.719 101.786 280.251 103.709C280.89 105.632 281.209 107.662 281.209 109.798C281.209 113.857 280.304 116.795 278.494 118.611C276.791 120.321 274.503 121.175 271.628 121.175H225.003C220.426 121.175 216.807 119.84 214.145 117.169C211.484 114.499 210.153 110.866 210.153 106.273V38.4916Z" fill="#10141D"/>
<path d="M343.957 71.3406C343.957 68.0292 342.997 65.6255 341.082 64.1301C339.274 62.5275 336.773 61.7264 333.577 61.7264C331.448 61.7264 329.32 61.9936 327.191 62.5275C325.168 63.0619 323.411 63.863 321.921 64.9313V120.534C320.857 120.855 319.153 121.175 316.811 121.496C314.576 121.816 312.234 121.976 309.786 121.976C307.444 121.976 305.315 121.816 303.399 121.496C301.589 121.175 300.046 120.534 298.768 119.573C297.491 118.611 296.479 117.329 295.734 115.727C295.096 114.018 294.776 111.828 294.776 109.157V61.0856C294.776 58.201 295.362 55.851 296.533 54.0351C297.81 52.2187 299.513 50.5631 301.642 49.0673C305.262 46.5037 309.786 44.4205 315.215 42.8183C320.75 41.2157 326.871 40.4146 333.577 40.4146C345.606 40.4146 354.867 43.0851 361.361 48.4265C367.855 53.661 371.101 60.9787 371.101 70.3792V120.534C370.037 120.855 368.333 121.175 365.99 121.496C363.755 121.816 361.415 121.976 358.964 121.976C356.625 121.976 354.494 121.816 352.578 121.496C350.77 121.175 349.225 120.534 347.949 119.573C346.67 118.611 345.66 117.329 344.913 115.727C344.276 114.018 343.957 111.828 343.957 109.157V71.3406Z" fill="#10141D"/>
<path d="M415.014 93.9343C415.014 96.7117 415.865 98.688 417.569 99.8631C419.377 101.038 421.881 101.626 425.073 101.626C426.668 101.626 428.321 101.519 430.025 101.305C431.725 100.985 433.216 100.611 434.495 100.184C435.452 101.359 436.249 102.694 436.889 104.19C437.633 105.579 438.007 107.288 438.007 109.317C438.007 113.377 436.465 116.688 433.378 119.252C430.395 121.816 425.073 123.098 417.407 123.098C408.042 123.098 400.804 120.961 395.693 116.688C390.691 112.415 388.189 105.472 388.189 95.8572V27.2748C389.358 26.9543 391.011 26.6338 393.138 26.3133C395.374 25.886 397.717 25.6724 400.164 25.6724C404.847 25.6724 408.466 26.527 411.021 28.2362C413.684 29.8386 415.014 33.3104 415.014 38.6518V48.9072H435.93C436.569 50.082 437.155 51.5777 437.687 53.3937C438.327 55.1028 438.646 57.026 438.646 59.1622C438.646 62.9014 437.795 65.6254 436.091 67.3345C434.495 68.9371 432.311 69.7382 429.543 69.7382H415.014V93.9343Z" fill="#10141D"/>
<path d="M555.524 123.258C549.242 123.258 543.388 122.404 537.958 120.695C532.636 118.878 527.953 116.208 523.906 112.683C519.967 109.157 516.83 104.724 514.487 99.3828C512.251 94.0414 511.134 87.792 511.134 80.6346C511.134 73.584 512.251 67.5484 514.487 62.5276C516.83 57.3999 519.863 53.2336 523.59 50.0291C527.313 46.7174 531.572 44.3137 536.362 42.8183C541.153 41.2157 546.048 40.4146 551.054 40.4146C556.696 40.4146 561.803 41.2691 566.381 42.9782C571.064 44.6877 575.057 47.0376 578.356 50.0291C581.763 53.0202 584.372 56.5987 586.179 60.765C588.098 64.9313 589.054 69.4712 589.054 74.3852C589.054 78.0175 588.044 80.7949 586.021 82.7177C583.998 84.6405 581.177 85.8691 577.558 86.4034L538.119 92.3322C539.291 95.8573 541.685 98.5282 545.304 100.344C548.923 102.053 553.073 102.908 557.76 102.908C562.123 102.908 566.223 102.374 570.054 101.306C573.993 100.13 577.184 98.795 579.635 97.2996C581.338 98.3679 582.776 99.8633 583.944 101.786C585.116 103.709 585.701 105.739 585.701 107.875C585.701 112.683 583.466 116.261 578.995 118.612C575.588 120.427 571.757 121.656 567.499 122.297C563.24 122.938 559.248 123.258 555.524 123.258ZM551.054 60.2841C548.498 60.2841 546.263 60.7116 544.347 61.5661C542.536 62.4207 541.045 63.5424 539.873 64.9313C538.705 66.2129 537.8 67.7087 537.16 69.4178C536.628 71.0204 536.308 72.6761 536.204 74.3852L563.506 69.8987C563.186 67.7621 562.018 65.6255 559.995 63.489C557.972 61.3524 554.992 60.2841 551.054 60.2841Z" fill="#10141D"/>
<path d="M643.47 123.418C637.188 123.418 631.333 122.564 625.903 120.854C620.581 119.038 615.898 116.368 611.852 112.843C607.913 109.317 604.772 104.884 602.432 99.5429C600.197 94.2015 599.079 87.9521 599.079 80.7947C599.079 73.7442 600.197 67.7085 602.432 62.6877C604.772 57.56 607.808 53.3938 611.532 50.1889C615.258 46.8775 619.517 44.4738 624.308 42.9784C629.098 41.3758 633.993 40.5747 638.995 40.5747C644.638 40.5747 649.748 41.4293 654.326 43.1384C659.009 44.8478 663.002 47.1978 666.301 50.1889C669.708 53.18 672.317 56.7589 674.125 60.9252C676.04 65.0914 677 69.6314 677 74.5453C677 78.1776 675.99 80.955 673.967 82.8779C671.943 84.8007 669.122 86.0293 665.503 86.5633L626.065 92.4924C627.233 96.0175 629.63 98.688 633.249 100.504C636.868 102.213 641.019 103.068 645.705 103.068C650.068 103.068 654.165 102.534 657.999 101.466C661.938 100.291 665.13 98.9552 667.58 97.4598C669.284 98.5281 670.718 100.023 671.889 101.946C673.061 103.869 673.647 105.899 673.647 108.035C673.647 112.843 671.411 116.421 666.941 118.772C663.534 120.588 659.703 121.816 655.444 122.457C651.186 123.098 647.193 123.418 643.47 123.418ZM638.995 60.4443C636.444 60.4443 634.208 60.8717 632.289 61.7263C630.482 62.5808 628.99 63.7026 627.819 65.0914C626.647 66.3731 625.745 67.8688 625.105 69.5779C624.573 71.1805 624.254 72.8362 624.146 74.5453L651.451 70.0588C651.132 67.9223 649.96 65.7857 647.94 63.6491C645.917 61.5126 642.934 60.4443 638.995 60.4443Z" fill="#10141D"/>
<path d="M558.207 0C563.852 0 567.922 1.08486 570.417 3.25459C573.022 5.42431 574.325 8.02798 574.325 11.0656C574.325 13.8863 573.564 16.273 572.046 18.2257C570.525 20.07 568.03 21.9143 564.556 23.7585L543.556 34.8242C540.3 34.4985 537.533 33.1968 535.254 30.9186C532.975 28.6404 531.837 26.1995 531.837 23.5958C531.837 22.294 532.16 20.9921 532.813 19.6903C533.463 18.3885 534.55 17.1951 536.069 16.1102L558.207 0Z" fill="#10141D"/>
</g>
<defs>
<clipPath id="clip0_5_1937">
<rect width="677" height="124" fill="white"/>
</clipPath>
</defs>
</svg>

