<svg width="101" height="103" viewBox="0 0 101 103" fill="none" xmlns="http://www.w3.org/2000/svg">
<g clip-path="url(#clip0_5_1947)">
<path d="M0 51.3544C0 43.0352 1.27323 35.6762 3.81968 29.2768C6.47225 22.8775 10.0266 17.5448 14.483 13.2785C19.0453 8.90571 24.3505 5.59941 30.3983 3.35965C36.5523 1.11988 43.1837 0 50.2926 0C57.4012 0 63.9796 1.11988 70.0276 3.35965C76.1815 5.59941 81.5396 8.90571 86.102 13.2785C90.6644 17.5448 94.2189 22.8775 96.7654 29.2768C99.4179 35.6762 100.744 43.0352 100.744 51.3544C100.744 59.6736 99.4709 67.0862 96.9244 73.592C94.378 79.9914 90.8235 85.3773 86.261 89.7502C81.805 94.0165 76.4996 97.2696 70.3457 99.5091C64.192 101.749 57.5076 102.869 50.2926 102.869C43.0777 102.869 36.3932 101.749 30.2391 99.5091C24.0852 97.1629 18.7801 93.8031 14.3238 89.4302C9.8675 85.0575 6.36612 79.6713 3.81968 73.2719C1.27323 66.8728 0 59.5669 0 51.3544ZM28.6476 51.3544C28.6476 51.3544 43.8733 51.3544 50.4517 51.3544C57.1361 51.3544 72.0965 51.3544 72.0965 51.3544C72.0965 41.7556 70.1336 34.5563 66.2077 29.7568C62.3881 24.9573 57.1361 22.5576 50.4517 22.5576C43.8733 22.5576 38.5682 24.9573 34.5363 29.7568C30.6105 34.4496 28.6476 41.6489 28.6476 51.3544Z" fill="#333B49"/>
</g>
<defs>
<clipPath id="clip0_5_1947">
<rect width="101" height="103" fill="white"/>
</clipPath>
</defs>
</svg>

